<svg width="58" height="60" viewBox="0 0 58 60" fill="none" xmlns="http://www.w3.org/2000/svg">
<path d="M6.90476 0.5C3.10781 0.5 0 3.66039 0 7.52157V52.4596C0 56.3208 3.10781 59.4812 6.90476 59.4812H30.149C30.2981 59.5063 30.4503 59.5063 30.5994 59.4812H38.4347C38.5838 59.5063 38.736 59.5063 38.8851 59.4812H51.0952C54.8922 59.4812 58 56.3208 58 52.4596V7.52157C58 3.66039 54.8922 0.5 51.0952 0.5H6.90476ZM6.90476 3.30863H51.0952C53.3993 3.30863 55.2381 5.1785 55.2381 7.52157V52.4596C55.2381 54.8027 53.3993 56.6726 51.0952 56.6726H40.0476V37.0122H45.3233L47.2572 27.182H40.0476V24.3733C40.0476 23.5904 40.1209 23.5292 40.3794 23.3585C40.6379 23.1878 41.4366 22.969 42.8095 22.969H46.9524V15.0615L46.1648 14.6803C46.1648 14.6803 42.9927 13.1388 38.6667 13.1388C35.5595 13.1388 33.007 14.3977 31.3735 16.4741C29.7401 18.5504 29 21.3307 29 24.3733V27.182H24.8571V37.0122H29V56.6726H6.90476C4.60067 56.6726 2.7619 54.8027 2.7619 52.4596V7.52157C2.7619 5.1785 4.60067 3.30863 6.90476 3.30863ZM38.6667 15.9475C41.5378 15.9475 43.3444 16.5913 44.1905 16.9321V20.1604H42.8095C41.2203 20.1604 39.9467 20.2941 38.8743 21.0024C37.8019 21.7108 37.2857 23.0554 37.2857 24.3733V29.9906H43.8857L43.0577 34.2035H37.2857V56.6726H31.7619V34.2035H27.619V29.9906H31.7619V24.3733C31.7619 21.7988 32.4028 19.6639 33.5312 18.2295C34.6597 16.795 36.25 15.9475 38.6667 15.9475Z" fill="#FFFCFF"/>
</svg>
