<svg width="58" height="58" viewBox="0 0 58 58" fill="none" xmlns="http://www.w3.org/2000/svg">
<path d="M17.1364 0C7.68827 0 0 7.68827 0 17.1364V40.8636C0 50.3117 7.68827 58 17.1364 58H40.8636C50.3117 58 58 50.3117 58 40.8636V17.1364C58 7.68827 50.3117 0 40.8636 0H17.1364ZM17.1364 2.63636H40.8636C48.8867 2.63636 55.3636 9.11327 55.3636 17.1364V40.8636C55.3636 48.8867 48.8867 55.3636 40.8636 55.3636H17.1364C9.11327 55.3636 2.63636 48.8867 2.63636 40.8636V17.1364C2.63636 9.11327 9.11327 2.63636 17.1364 2.63636ZM44.8182 10.5455C44.119 10.5455 43.4484 10.8232 42.954 11.3176C42.4596 11.812 42.1818 12.4826 42.1818 13.1818C42.1818 13.881 42.4596 14.5516 42.954 15.046C43.4484 15.5404 44.119 15.8182 44.8182 15.8182C45.5174 15.8182 46.188 15.5404 46.6824 15.046C47.1768 14.5516 47.4545 13.881 47.4545 13.1818C47.4545 12.4826 47.1768 11.812 46.6824 11.3176C46.188 10.8232 45.5174 10.5455 44.8182 10.5455ZM29 14.5C21.0075 14.5 14.5 21.0075 14.5 29C14.5 36.9925 21.0075 43.5 29 43.5C36.9925 43.5 43.5 36.9925 43.5 29C43.5 21.0075 36.9925 14.5 29 14.5ZM29 17.1364C35.5677 17.1364 40.8636 22.4323 40.8636 29C40.8636 35.5677 35.5677 40.8636 29 40.8636C22.4323 40.8636 17.1364 35.5677 17.1364 29C17.1364 22.4323 22.4323 17.1364 29 17.1364Z" fill="#FFFCFF"/>
</svg>
